<svg id="Layer_1" data-name="Layer 1" xmlns="http://www.w3.org/2000/svg" width="36" height="36" viewBox="0 0 36 36"><defs><style>.cls-1{fill:#fff;}</style></defs><title>batwings</title><path class="cls-1" d="M18,0A18,18,0,1,0,36,18,18,18,0,0,0,18,0ZM28.37,26.45a25,25,0,0,0-2.17-6,3.91,3.91,0,0,0-3.35-2.13c-1.07,0-2,.57-3.11,2.18A25.62,25.62,0,0,0,18,23.94a25.72,25.72,0,0,0-1.75-3.4c-1.15-1.6-2.06-2.16-3.11-2.18a3.94,3.94,0,0,0-3.36,2.13,25,25,0,0,0-2.15,6H6.41L12.93,5.07l5,16.69,0,0,0,0,5-16.69,6.52,21.37Z"/></svg>